<svg xmlns="http://www.w3.org/2000/svg" width="1778" height="224" viewBox="0 0 1778 224" shape-rendering="geometricPrecision">
  <path d="M116,155 L92,179 L92,180 L62,210 L170,210 L155,195 L155,194 L117,156 L117,155 Z M1582,13 L1582,210 L1603,210 L1603,49 L1604,48 L1605,49 L1605,50 L1607,52 L1607,53 L1609,55 L1609,56 L1612,59 L1612,60 L1614,62 L1614,63 L1616,65 L1616,66 L1618,68 L1618,69 L1620,71 L1620,72 L1622,74 L1622,75 L1624,77 L1624,78 L1626,80 L1626,81 L1629,84 L1629,85 L1631,87 L1631,88 L1633,90 L1633,91 L1635,93 L1635,94 L1637,96 L1637,97 L1639,99 L1639,100 L1641,102 L1641,103 L1644,106 L1644,107 L1646,109 L1646,110 L1648,112 L1648,113 L1650,115 L1650,116 L1652,118 L1652,119 L1654,121 L1654,122 L1656,124 L1656,125 L1658,127 L1658,128 L1661,131 L1661,132 L1663,134 L1663,135 L1665,137 L1665,138 L1667,140 L1667,141 L1669,143 L1669,144 L1671,146 L1671,147 L1672,148 L1674,146 L1674,145 L1676,143 L1676,142 L1679,139 L1679,138 L1682,135 L1682,134 L1684,132 L1684,131 L1687,128 L1687,127 L1689,125 L1689,124 L1692,121 L1692,120 L1695,117 L1695,116 L1697,114 L1697,113 L1700,110 L1700,109 L1702,107 L1702,106 L1705,103 L1705,102 L1708,99 L1708,98 L1710,96 L1710,95 L1713,92 L1713,91 L1715,89 L1715,88 L1718,85 L1718,84 L1721,81 L1721,80 L1723,78 L1723,77 L1726,74 L1726,73 L1728,71 L1728,70 L1731,67 L1731,66 L1734,63 L1734,62 L1736,60 L1736,59 L1739,56 L1739,55 L1741,53 L1741,52 L1744,49 L1744,48 L1745,47 L1746,48 L1746,210 L1767,210 L1767,13 L1743,13 L1742,14 L1742,15 L1740,17 L1740,18 L1738,20 L1738,21 L1736,23 L1736,24 L1734,26 L1734,27 L1732,29 L1732,30 L1730,32 L1730,33 L1728,35 L1728,36 L1726,38 L1726,39 L1723,42 L1723,43 L1721,45 L1721,46 L1719,48 L1719,49 L1717,51 L1717,52 L1715,54 L1715,55 L1713,57 L1713,58 L1711,60 L1711,61 L1709,63 L1709,64 L1707,66 L1707,67 L1705,69 L1705,70 L1702,73 L1702,74 L1700,76 L1700,77 L1698,79 L1698,80 L1696,82 L1696,83 L1694,85 L1694,86 L1692,88 L1692,89 L1690,91 L1690,92 L1688,94 L1688,95 L1686,97 L1686,98 L1683,101 L1683,102 L1681,104 L1681,105 L1679,107 L1679,108 L1677,110 L1677,111 L1675,113 L1675,114 L1674,115 L1673,115 L1671,113 L1671,112 L1669,110 L1669,109 L1667,107 L1667,106 L1665,104 L1665,103 L1663,101 L1663,100 L1661,98 L1661,97 L1659,95 L1659,94 L1657,92 L1657,91 L1655,89 L1655,88 L1653,86 L1653,85 L1651,83 L1651,82 L1650,81 L1650,80 L1648,78 L1648,77 L1646,75 L1646,74 L1644,72 L1644,71 L1642,69 L1642,68 L1640,66 L1640,65 L1638,63 L1638,62 L1636,60 L1636,59 L1634,57 L1634,56 L1632,54 L1632,53 L1630,51 L1630,50 L1628,48 L1628,47 L1626,45 L1626,44 L1624,42 L1624,41 L1622,39 L1622,38 L1620,36 L1620,35 L1618,33 L1618,32 L1616,30 L1616,29 L1615,28 L1615,27 L1613,25 L1613,24 L1611,22 L1611,21 L1609,19 L1609,18 L1607,16 L1607,15 L1605,13 Z M1408,13 L1408,140 L1409,141 L1409,149 L1410,150 L1410,154 L1411,155 L1411,159 L1412,160 L1412,162 L1413,163 L1413,166 L1414,167 L1414,168 L1415,169 L1415,171 L1416,172 L1416,173 L1417,174 L1417,175 L1418,176 L1418,177 L1419,178 L1419,179 L1420,180 L1420,181 L1422,183 L1422,184 L1424,186 L1424,187 L1435,198 L1436,198 L1439,201 L1440,201 L1442,203 L1443,203 L1444,204 L1445,204 L1446,205 L1447,205 L1448,206 L1449,206 L1450,207 L1452,207 L1453,208 L1455,208 L1456,209 L1458,209 L1459,210 L1462,210 L1463,211 L1466,211 L1467,212 L1474,212 L1475,213 L1498,213 L1499,212 L1504,212 L1505,211 L1510,211 L1511,210 L1513,210 L1514,209 L1516,209 L1517,208 L1520,208 L1521,207 L1522,207 L1523,206 L1524,206 L1525,205 L1526,205 L1527,204 L1528,204 L1529,203 L1530,203 L1531,202 L1532,202 L1534,200 L1535,200 L1539,196 L1540,196 L1546,190 L1546,189 L1550,185 L1550,184 L1552,182 L1552,181 L1553,180 L1553,179 L1555,177 L1555,176 L1556,175 L1556,173 L1557,172 L1557,171 L1558,170 L1558,168 L1559,167 L1559,166 L1560,165 L1560,162 L1561,161 L1561,158 L1562,157 L1562,154 L1563,153 L1563,147 L1564,146 L1564,132 L1565,131 L1565,13 L1544,13 L1544,143 L1543,144 L1543,149 L1542,150 L1542,154 L1541,155 L1541,158 L1540,159 L1540,161 L1539,162 L1539,163 L1538,164 L1538,165 L1537,166 L1537,167 L1536,168 L1536,169 L1535,170 L1535,171 L1533,173 L1533,174 L1523,184 L1522,184 L1520,186 L1519,186 L1518,187 L1517,187 L1516,188 L1515,188 L1514,189 L1513,189 L1512,190 L1510,190 L1509,191 L1507,191 L1506,192 L1502,192 L1501,193 L1493,193 L1492,194 L1481,194 L1480,193 L1473,193 L1472,192 L1468,192 L1467,191 L1464,191 L1463,190 L1462,190 L1461,189 L1459,189 L1458,188 L1457,188 L1456,187 L1455,187 L1454,186 L1453,186 L1451,184 L1450,184 L1446,180 L1445,180 L1443,178 L1443,177 L1439,173 L1439,172 L1437,170 L1437,169 L1436,168 L1436,167 L1435,166 L1435,165 L1434,164 L1434,162 L1433,161 L1433,159 L1432,158 L1432,155 L1431,154 L1431,150 L1430,149 L1430,143 L1429,142 L1429,13 Z M929,13 L929,210 L950,210 L950,45 L951,44 L952,45 L952,46 L954,48 L954,49 L957,52 L957,53 L959,55 L959,56 L962,59 L962,60 L964,62 L964,63 L967,66 L967,67 L970,70 L970,71 L972,73 L972,74 L975,77 L975,78 L977,80 L977,81 L980,84 L980,85 L982,87 L982,88 L985,91 L985,92 L987,94 L987,95 L990,98 L990,99 L993,102 L993,103 L995,105 L995,106 L998,109 L998,110 L1000,112 L1000,113 L1003,116 L1003,117 L1005,119 L1005,120 L1008,123 L1008,124 L1010,126 L1010,127 L1013,130 L1013,131 L1016,134 L1016,135 L1018,137 L1018,138 L1021,141 L1021,142 L1023,144 L1023,145 L1026,148 L1026,149 L1028,151 L1028,152 L1031,155 L1031,156 L1033,158 L1033,159 L1036,162 L1036,163 L1039,166 L1039,167 L1041,169 L1041,170 L1044,173 L1044,174 L1046,176 L1046,177 L1049,180 L1049,181 L1051,183 L1051,184 L1054,187 L1054,188 L1057,191 L1057,192 L1059,194 L1059,195 L1062,198 L1062,199 L1064,201 L1064,202 L1067,205 L1067,206 L1069,208 L1069,209 L1070,210 L1094,210 L1094,33 L1095,32 L1162,32 L1163,33 L1163,210 L1184,210 L1184,33 L1185,32 L1252,32 L1253,33 L1253,210 L1273,210 L1273,131 L1274,130 L1325,130 L1326,131 L1326,132 L1328,134 L1328,135 L1330,137 L1330,138 L1332,140 L1332,141 L1334,143 L1334,144 L1336,146 L1336,147 L1338,149 L1338,150 L1339,151 L1339,152 L1341,154 L1341,155 L1343,157 L1343,158 L1345,160 L1345,161 L1347,163 L1347,164 L1349,166 L1349,167 L1351,169 L1351,170 L1353,172 L1353,173 L1355,175 L1355,176 L1357,178 L1357,179 L1359,181 L1359,182 L1360,183 L1360,184 L1362,186 L1362,187 L1364,189 L1364,190 L1366,192 L1366,193 L1368,195 L1368,196 L1370,198 L1370,199 L1372,201 L1372,202 L1374,204 L1374,205 L1376,207 L1376,208 L1378,210 L1402,210 L1402,209 L1400,207 L1400,206 L1398,204 L1398,203 L1396,201 L1396,200 L1394,198 L1394,197 L1392,195 L1392,194 L1390,192 L1390,191 L1388,189 L1388,188 L1386,186 L1386,185 L1384,183 L1384,182 L1382,180 L1382,179 L1380,177 L1380,176 L1378,174 L1378,173 L1376,171 L1376,170 L1374,168 L1374,167 L1372,165 L1372,164 L1371,163 L1371,162 L1369,160 L1369,159 L1367,157 L1367,156 L1365,154 L1365,153 L1363,151 L1363,150 L1361,148 L1361,147 L1359,145 L1359,144 L1357,142 L1357,141 L1355,139 L1355,138 L1353,136 L1353,135 L1351,133 L1351,132 L1349,130 L1349,128 L1350,127 L1353,127 L1354,126 L1357,126 L1358,125 L1359,125 L1360,124 L1361,124 L1362,123 L1363,123 L1364,122 L1366,122 L1368,120 L1369,120 L1371,118 L1372,118 L1383,107 L1383,106 L1385,104 L1385,103 L1386,102 L1386,101 L1387,100 L1387,99 L1388,98 L1388,97 L1389,96 L1389,95 L1390,94 L1390,92 L1391,91 L1391,88 L1392,87 L1392,84 L1393,83 L1393,75 L1394,74 L1394,64 L1393,63 L1393,56 L1392,55 L1392,51 L1391,50 L1391,48 L1390,47 L1390,44 L1389,43 L1389,42 L1388,41 L1388,40 L1387,39 L1387,38 L1386,37 L1386,36 L1385,35 L1385,34 L1382,31 L1382,30 L1376,24 L1375,24 L1373,22 L1372,22 L1370,20 L1369,20 L1368,19 L1367,19 L1366,18 L1365,18 L1364,17 L1362,17 L1361,16 L1359,16 L1358,15 L1355,15 L1354,14 L1349,14 L1348,13 L1073,13 L1073,177 L1072,178 L1070,176 L1070,175 L1067,172 L1067,171 L1065,169 L1065,168 L1062,165 L1062,164 L1059,161 L1059,160 L1057,158 L1057,157 L1054,154 L1054,153 L1052,151 L1052,150 L1049,147 L1049,146 L1047,144 L1047,143 L1044,140 L1044,139 L1042,137 L1042,136 L1039,133 L1039,132 L1036,129 L1036,128 L1034,126 L1034,125 L1031,122 L1031,121 L1029,119 L1029,118 L1026,115 L1026,114 L1024,112 L1024,111 L1021,108 L1021,107 L1019,105 L1019,104 L1016,101 L1016,100 L1014,98 L1014,97 L1011,94 L1011,93 L1008,90 L1008,89 L1006,87 L1006,86 L1003,83 L1003,82 L1001,80 L1001,79 L998,76 L998,75 L996,73 L996,72 L993,69 L993,68 L991,66 L991,65 L988,62 L988,61 L985,58 L985,57 L983,55 L983,54 L980,51 L980,50 L978,48 L978,47 L975,44 L975,43 L973,41 L973,40 L970,37 L970,36 L968,34 L968,33 L965,30 L965,29 L963,27 L963,26 L960,23 L960,22 L957,19 L957,18 L955,16 L955,15 L953,13 Z M1273,33 L1274,32 L1339,32 L1340,33 L1346,33 L1347,34 L1350,34 L1351,35 L1353,35 L1354,36 L1355,36 L1356,37 L1357,37 L1358,38 L1359,38 L1366,45 L1366,46 L1367,47 L1367,48 L1369,50 L1369,52 L1370,53 L1370,54 L1371,55 L1371,59 L1372,60 L1372,66 L1373,67 L1373,74 L1372,75 L1372,82 L1371,83 L1371,85 L1370,86 L1370,88 L1369,89 L1369,90 L1368,91 L1368,92 L1367,93 L1367,94 L1363,98 L1363,99 L1360,102 L1359,102 L1357,104 L1356,104 L1354,106 L1352,106 L1351,107 L1350,107 L1349,108 L1346,108 L1345,109 L1342,109 L1341,110 L1333,110 L1332,111 L1275,111 L1273,109 Z M788,13 L788,210 L914,210 L914,191 L810,191 L809,190 L809,122 L810,121 L902,121 L902,102 L901,101 L810,101 L809,100 L809,33 L810,32 L914,32 L914,13 Z M445,13 L445,210 L549,210 L550,209 L557,209 L558,208 L562,208 L563,207 L566,207 L567,206 L569,206 L570,205 L573,205 L574,204 L575,204 L576,203 L578,203 L579,202 L580,202 L581,201 L582,201 L583,200 L584,200 L586,198 L587,198 L588,197 L589,197 L592,194 L593,194 L601,186 L601,185 L603,183 L603,182 L605,180 L605,179 L606,178 L606,177 L607,176 L607,175 L608,174 L608,172 L609,171 L609,169 L610,168 L610,164 L611,163 L611,156 L612,155 L612,146 L611,145 L611,140 L610,139 L610,136 L609,135 L609,133 L608,132 L608,130 L606,128 L606,127 L605,126 L605,125 L603,123 L603,122 L593,112 L592,112 L590,110 L589,110 L588,109 L587,109 L586,108 L585,108 L584,107 L582,107 L581,106 L580,106 L578,104 L580,102 L581,102 L583,100 L584,100 L586,98 L587,98 L594,91 L594,90 L597,87 L597,86 L598,85 L598,84 L599,83 L599,81 L600,80 L600,78 L601,77 L601,69 L602,68 L602,67 L601,66 L601,56 L600,55 L600,51 L599,50 L599,48 L598,47 L598,45 L597,44 L597,43 L596,42 L596,41 L595,40 L595,39 L593,37 L593,36 L590,33 L590,32 L586,28 L585,28 L582,25 L581,25 L579,23 L578,23 L577,22 L576,22 L575,21 L574,21 L573,20 L571,20 L570,19 L569,19 L568,18 L566,18 L565,17 L562,17 L561,16 L559,16 L558,15 L553,15 L552,14 L546,14 L545,13 Z M493,126 L494,125 L538,125 L539,126 L544,126 L545,127 L547,127 L548,128 L549,128 L550,129 L551,129 L552,130 L553,130 L556,133 L557,133 L558,134 L558,135 L560,137 L560,138 L561,139 L561,140 L562,141 L562,156 L561,157 L561,159 L560,160 L560,161 L559,162 L559,163 L552,170 L551,170 L550,171 L549,171 L548,172 L545,172 L544,173 L539,173 L538,174 L494,174 L493,173 Z M493,50 L494,49 L531,49 L532,50 L537,50 L538,51 L540,51 L541,52 L542,52 L543,53 L544,53 L547,56 L548,56 L549,57 L549,58 L550,59 L550,60 L551,61 L551,62 L552,63 L552,69 L553,70 L553,72 L552,73 L552,77 L551,78 L551,80 L549,82 L549,83 L545,87 L544,87 L542,89 L540,89 L539,90 L533,90 L532,91 L494,91 L493,90 Z M317,13 L317,14 L316,15 L316,16 L315,17 L315,19 L314,20 L314,22 L313,23 L313,24 L312,25 L312,27 L311,28 L311,29 L310,30 L310,32 L309,33 L309,35 L308,36 L308,37 L307,38 L307,40 L306,41 L306,42 L305,43 L305,45 L304,46 L304,48 L303,49 L303,50 L302,51 L302,53 L301,54 L301,55 L300,56 L300,58 L299,59 L299,61 L298,62 L298,63 L297,64 L297,66 L296,67 L296,69 L295,70 L295,71 L294,72 L294,74 L293,75 L293,76 L292,77 L292,79 L291,80 L291,82 L290,83 L290,84 L289,85 L289,87 L288,88 L288,89 L287,90 L287,92 L286,93 L286,95 L285,96 L285,97 L284,98 L284,100 L283,101 L283,102 L282,103 L282,105 L281,106 L281,108 L280,109 L280,110 L279,111 L279,113 L278,114 L278,116 L277,117 L277,118 L276,119 L276,121 L275,122 L275,123 L274,124 L274,126 L273,127 L273,129 L272,130 L272,131 L271,132 L271,134 L270,135 L270,136 L269,137 L269,139 L268,140 L268,142 L267,143 L267,144 L266,145 L266,147 L265,148 L265,149 L264,150 L264,152 L263,153 L263,155 L262,156 L262,157 L261,158 L261,160 L260,161 L260,163 L259,164 L259,165 L258,166 L258,168 L257,169 L257,170 L256,171 L256,173 L255,174 L255,176 L254,177 L254,178 L253,179 L253,181 L252,182 L252,183 L251,184 L251,186 L250,187 L250,189 L249,190 L249,191 L248,192 L248,194 L247,195 L247,196 L246,197 L246,199 L245,200 L245,202 L244,203 L244,204 L243,205 L243,207 L242,208 L242,210 L287,210 L287,209 L288,208 L288,206 L289,205 L289,203 L290,202 L290,201 L291,200 L291,198 L292,197 L292,195 L293,194 L293,192 L294,191 L294,189 L295,188 L295,186 L296,185 L296,183 L297,182 L297,180 L298,179 L298,177 L299,176 L299,174 L300,173 L300,171 L301,170 L301,168 L302,167 L376,167 L378,169 L378,171 L379,172 L379,174 L380,175 L380,177 L381,178 L381,180 L382,181 L382,183 L383,184 L383,185 L384,186 L384,188 L385,189 L385,191 L386,192 L386,194 L387,195 L387,197 L388,198 L388,200 L389,201 L389,203 L390,204 L390,206 L391,207 L391,209 L392,210 L441,210 L440,209 L440,207 L439,206 L439,204 L438,203 L438,201 L437,200 L437,199 L436,198 L436,196 L435,195 L435,193 L434,192 L434,190 L433,189 L433,187 L432,186 L432,185 L431,184 L431,182 L430,181 L430,179 L429,178 L429,176 L428,175 L428,173 L427,172 L427,171 L426,170 L426,168 L425,167 L425,165 L424,164 L424,162 L423,161 L423,160 L422,159 L422,157 L421,156 L421,154 L420,153 L420,151 L419,150 L419,148 L418,147 L418,146 L417,145 L417,143 L416,142 L416,140 L415,139 L415,137 L414,136 L414,134 L413,133 L413,132 L412,131 L412,129 L411,128 L411,126 L410,125 L410,123 L409,122 L409,120 L408,119 L408,118 L407,117 L407,115 L406,114 L406,112 L405,111 L405,109 L404,108 L404,107 L403,106 L403,104 L402,103 L402,101 L401,100 L401,98 L400,97 L400,95 L399,94 L399,93 L398,92 L398,90 L397,89 L397,87 L396,86 L396,84 L395,83 L395,81 L394,80 L394,79 L393,78 L393,76 L392,75 L392,73 L391,72 L391,70 L390,69 L390,67 L389,66 L389,65 L388,64 L388,62 L387,61 L387,59 L386,58 L386,56 L385,55 L385,54 L384,53 L384,51 L383,50 L383,48 L382,47 L382,45 L381,44 L381,42 L380,41 L380,40 L379,39 L379,37 L378,36 L378,34 L377,33 L377,31 L376,30 L376,28 L375,27 L375,26 L374,25 L374,23 L373,22 L373,20 L372,19 L372,17 L371,16 L371,15 L370,14 L370,13 Z M338,59 L339,58 L340,59 L340,60 L341,61 L341,63 L342,64 L342,66 L343,67 L343,69 L344,70 L344,72 L345,73 L345,75 L346,76 L346,78 L347,79 L347,81 L348,82 L348,83 L349,84 L349,86 L350,87 L350,89 L351,90 L351,92 L352,93 L352,95 L353,96 L353,98 L354,99 L354,101 L355,102 L355,104 L356,105 L356,107 L357,108 L357,110 L358,111 L358,113 L359,114 L359,116 L360,117 L360,118 L361,119 L361,121 L362,122 L362,124 L363,125 L363,127 L364,128 L364,130 L365,131 L365,132 L364,133 L315,133 L314,132 L314,129 L315,128 L315,127 L316,126 L316,124 L317,123 L317,121 L318,120 L318,118 L319,117 L319,115 L320,114 L320,112 L321,111 L321,109 L322,108 L322,106 L323,105 L323,103 L324,102 L324,100 L325,99 L325,97 L326,96 L326,94 L327,93 L327,91 L328,90 L328,88 L329,87 L329,85 L330,84 L330,82 L331,81 L331,79 L332,78 L332,76 L333,75 L333,73 L334,72 L334,70 L335,69 L335,67 L336,66 L336,64 L337,63 L337,61 L338,60 Z M10,12 L10,210 L12,208 L13,208 L23,198 L24,198 L34,188 L35,188 L45,178 L46,178 L56,168 L57,168 L68,157 L69,157 L79,147 L80,147 L90,137 L91,137 L101,127 L102,127 L112,117 L113,117 L116,114 L117,114 L126,123 L127,123 L137,133 L138,133 L149,144 L150,144 L160,154 L161,154 L171,164 L172,164 L182,174 L183,174 L193,184 L194,184 L205,195 L206,195 L216,205 L217,205 L222,210 L222,12 Z M707,10 L706,11 L699,11 L698,12 L693,12 L692,13 L689,13 L688,14 L685,14 L684,15 L682,15 L681,16 L679,16 L678,17 L676,17 L675,18 L674,18 L673,19 L672,19 L671,20 L670,20 L669,21 L668,21 L667,22 L666,22 L665,23 L664,23 L662,25 L661,25 L658,28 L657,28 L645,40 L645,41 L643,43 L643,44 L641,46 L641,47 L640,48 L640,49 L638,51 L638,53 L637,54 L637,55 L636,56 L636,57 L635,58 L635,59 L634,60 L634,62 L633,63 L633,65 L632,66 L632,69 L631,70 L631,72 L630,73 L630,77 L629,78 L629,82 L628,83 L628,90 L627,91 L627,105 L626,106 L626,116 L627,117 L627,131 L628,132 L628,138 L629,139 L629,144 L630,145 L630,148 L631,149 L631,152 L632,153 L632,156 L633,157 L633,159 L634,160 L634,161 L635,162 L635,164 L636,165 L636,166 L637,167 L637,168 L638,169 L638,171 L639,172 L639,173 L641,175 L641,176 L643,178 L643,179 L644,180 L644,181 L648,185 L648,186 L656,194 L657,194 L660,197 L661,197 L663,199 L664,199 L665,200 L666,200 L668,202 L669,202 L670,203 L671,203 L672,204 L674,204 L675,205 L676,205 L677,206 L679,206 L680,207 L682,207 L683,208 L685,208 L686,209 L689,209 L690,210 L694,210 L695,211 L701,211 L702,212 L716,212 L717,213 L720,213 L721,212 L734,212 L735,211 L741,211 L742,210 L746,210 L747,209 L751,209 L752,208 L754,208 L755,207 L758,207 L759,206 L761,206 L762,205 L764,205 L765,204 L767,204 L768,203 L770,203 L771,202 L772,202 L773,201 L774,201 L775,200 L777,200 L778,199 L779,199 L780,198 L780,179 L779,179 L778,180 L777,180 L776,181 L774,181 L773,182 L772,182 L771,183 L770,183 L769,184 L768,184 L767,185 L765,185 L764,186 L762,186 L761,187 L759,187 L758,188 L756,188 L755,189 L753,189 L752,190 L747,190 L746,191 L742,191 L741,192 L733,192 L732,193 L710,193 L709,192 L703,192 L702,191 L698,191 L697,190 L694,190 L693,189 L690,189 L689,188 L688,188 L687,187 L685,187 L684,186 L683,186 L682,185 L681,185 L680,184 L679,184 L677,182 L676,182 L674,180 L673,180 L662,169 L662,168 L660,166 L660,165 L659,164 L659,163 L657,161 L657,160 L656,159 L656,158 L655,157 L655,155 L654,154 L654,152 L653,151 L653,149 L652,148 L652,144 L651,143 L651,140 L650,139 L650,133 L649,132 L649,121 L648,120 L648,103 L649,102 L649,91 L650,90 L650,85 L651,84 L651,80 L652,79 L652,75 L653,74 L653,73 L654,72 L654,70 L655,69 L655,67 L656,66 L656,65 L657,64 L657,63 L658,62 L658,61 L659,60 L659,59 L660,58 L660,57 L662,55 L662,54 L665,51 L665,50 L672,43 L673,43 L675,41 L676,41 L678,39 L679,39 L681,37 L683,37 L684,36 L685,36 L686,35 L687,35 L688,34 L691,34 L692,33 L694,33 L695,32 L698,32 L699,31 L705,31 L706,30 L719,30 L720,29 L722,29 L723,30 L736,30 L737,31 L742,31 L743,32 L747,32 L748,33 L751,33 L752,34 L755,34 L756,35 L758,35 L759,36 L761,36 L762,37 L764,37 L765,38 L767,38 L768,39 L769,39 L770,40 L771,40 L772,41 L773,41 L774,42 L776,42 L777,43 L778,43 L779,44 L780,44 L780,24 L779,24 L778,23 L776,23 L775,22 L774,22 L773,21 L771,21 L770,20 L769,20 L768,19 L767,19 L766,18 L763,18 L762,17 L760,17 L759,16 L757,16 L756,15 L754,15 L753,14 L750,14 L749,13 L744,13 L743,12 L739,12 L738,11 L729,11 L728,10 Z" fill="#FFFFFF" fill-rule="evenodd"/>
</svg>